<?xml version="1.0" encoding="UTF-8"?>
<svg id="Capa_1" xmlns="http://www.w3.org/2000/svg" version="1.1" viewBox="0 0 32 32">
  <!-- Generator: Adobe Illustrator 30.2.1, SVG Export Plug-In . SVG Version: 2.1.1 Build 1)  -->
  <defs>
    <style>
      .st0 {
        fill: #f5efe6;
      }

      .st1 {
        fill: #2e2e2e;
      }
    </style>
  </defs>
  <rect class="st0" y="0" width="32" height="32"/>
  <g>
    <path class="st1" d="M6.1,18.1v5.3h-3.3v-14.9h6.9c1,0,1.9.2,2.6.6s1.3,1,1.7,1.7.6,1.6.6,2.6-.2,1.9-.7,2.7-1.1,1.3-1.9,1.6l3,5.7h-3.7l-2.4-5.3h-2.7ZM9.2,11.4h-3.1v4h3.1c.7,0,1.2-.2,1.6-.5s.6-.8.6-1.5-.2-1.1-.6-1.5-.9-.5-1.6-.5Z"/>
    <path class="st1" d="M16.6,8.6h3.3v5.7h5.9v-5.7h3.3v14.9h-3.3v-6.1h-5.9v6.1h-3.3v-14.9Z"/>
  </g>
</svg>